<?xml version="1.0" encoding="utf-8"?>
<!-- Generator: Adobe Illustrator 21.1.0, SVG Export Plug-In . SVG Version: 6.00 Build 0)  -->
<!DOCTYPE svg PUBLIC "-//W3C//DTD SVG 1.1//EN" "http://www.w3.org/Graphics/SVG/1.1/DTD/svg11.dtd">
<svg version="1.1" id="Layer_1" xmlns="http://www.w3.org/2000/svg" xmlns:xlink="http://www.w3.org/1999/xlink" x="0px" y="0px"
	 viewBox="0 0 125 100" enable-background="new 0 0 125 100" xml:space="preserve">
<path fill="#FFFFFF" d="M110.6,78.7c1.2-0.4,2.1-1.5,2.1-2.8v-2.4c0-1.6-1.3-2.9-2.9-2.9h-2.2V33.1c0-1.6-1.8-5.1-13.5-10.5v-7.1
	l0-0.1c0,0-0.3-3.4-5.5-3.4c-5,0.1-13.7,0-13.8,0h-6.8c-0.2,0-17.3,0.1-22.3,0c-5.1-0.1-5.5,3.3-5.5,3.4l0,7c-0.1,0-0.3,0.1-0.4,0.1
	c-11.7,5.5-13.5,9-13.5,10.6v18.6c-4.2,0.3-5.2,2.8-5.4,4.7h-9.5c-0.4,0-0.7,0.3-0.7,0.7v30.2c0,0.4,0.3,0.7,0.7,0.7
	c0.4,0,0.7-0.3,0.7-0.7V57.8h8.8c0.2,1.8,1.2,4.6,5.4,4.8v8h-1.8c-1.6,0-2.9,1.3-2.9,2.9v2.4c0,1.4,1,2.6,2.4,2.9
	c-1.8,1.6-4.4,4.6-4.5,8.5c0,0.2,0.1,0.4,0.2,0.5c0.1,0.1,0.3,0.2,0.5,0.2h41.3c0.4,0,0.7-0.3,0.7-0.7c0-0.2,0.3-4.7-3.8-8.8
	c1-0.4,1.8-1.5,1.8-2.7v-2.4c0-1.6-1.3-2.9-2.9-2.9h-1.8V33.1c0-1.6-1.8-5.1-13.5-10.6c-0.1-0.1-0.3-0.1-0.4-0.1v-6.9
	c0-0.2,0.5-2.1,4-2c5.1,0.1,22.2,0,22.4,0h6.8c0.1,0,8.8,0.1,13.8,0c3.6,0,4,1.8,4,2v6.9c-0.3,0-0.5,0.1-0.8,0.2
	c-11.7,5.5-13.5,9-13.5,10.6v37.6H77c-1.6,0-2.9,1.3-2.9,2.9v2.4c0,1.3,0.9,2.4,2.1,2.8c-1.8,1.6-4.5,4.6-4.6,8.6
	c0,0.2,0.1,0.4,0.2,0.5c0.1,0.1,0.3,0.2,0.5,0.2h41.3c0.4,0,0.7-0.3,0.7-0.7C114.3,87.2,114.7,82.8,110.6,78.7z M22.3,57.1
	c0-2.5,1.3-3.8,4-4v8.1C23.7,61,22.3,59.6,22.3,57.1z M60.9,86.6H21.1c0.5-4.1,4.4-7.1,5.2-7.7h30.3C60.2,81.8,60.8,85.2,60.9,86.6z
	 M57.4,72.1c0.8,0,1.5,0.7,1.5,1.5v2.4c0,0.8-0.7,1.5-1.5,1.5h-0.2c-0.1,0-0.1-0.1-0.2-0.1l-0.1,0.1H24.6c-0.8,0-1.5-0.7-1.5-1.5
	v-2.4c0-0.8,0.7-1.5,1.5-1.5h1.8h29.2H57.4z M54.1,33.1v37.6H27.8V33.1c0-2,5-5.7,12.7-9.2c0.3-0.2,0.7-0.2,1,0l0,0
	C49.2,27.4,54.1,31,54.1,33.1z M79.8,33.1c0-2,5-5.7,12.7-9.2c0.3-0.2,0.7-0.2,1,0l0,0c7.7,3.6,12.7,7.2,12.7,9.2v37.6H79.8V33.1z
	 M75.5,75.9v-2.4c0-0.8,0.7-1.5,1.5-1.5h1.4h29.2h2.2c0.8,0,1.5,0.7,1.5,1.5v2.4c0,0.8-0.7,1.5-1.5,1.5h-0.7c-0.1,0-0.1-0.1-0.2-0.1
	l-0.1,0.1H77C76.2,77.4,75.5,76.8,75.5,75.9z M73.1,86.6c0.5-4.1,4.4-7.1,5.2-7.7h30.3c3.6,2.9,4.2,6.3,4.3,7.7H73.1z"/>
</svg>
