<?xml version="1.0" encoding="utf-8"?>
<!-- Generator: Adobe Illustrator 21.1.0, SVG Export Plug-In . SVG Version: 6.00 Build 0)  -->
<!DOCTYPE svg PUBLIC "-//W3C//DTD SVG 1.1//EN" "http://www.w3.org/Graphics/SVG/1.1/DTD/svg11.dtd">
<svg version="1.1" id="Layer_1" xmlns="http://www.w3.org/2000/svg" xmlns:xlink="http://www.w3.org/1999/xlink" x="0px" y="0px"
	 viewBox="0 0 275 100" enable-background="new 0 0 275 100" xml:space="preserve">
<path fill="#FFFFFF" d="M81.3,25.2c0.8-1.5,0.7-3.2,0-5.3c-1.6-4.2-5.7-4.1-7.7-3.5L22.1,35.1c-0.2,0.1-4.8,1.6-6.1-1.9
	c-0.1-0.4-0.6-0.6-0.9-0.4c-0.4,0.1-0.6,0.6-0.4,0.9c0.9,2.5,3.1,3.2,5.1,3.2c1.1,0,2.1-0.2,2.8-0.4l51.5-18.7
	c0.2-0.1,4.3-1.4,5.9,2.6c0.6,1.7,0.7,3,0.1,4.1c-0.1,0.1-0.2,0.3-0.2,0.4c-1.8-3.5-5.5-3.4-7.4-2.8L21,40.8
	c-0.2,0.1-4.8,1.6-6.1-1.9c-0.1-0.4-0.6-0.6-0.9-0.4c-0.4,0.1-0.6,0.6-0.4,0.9c0.9,2.5,3.1,3.2,5.1,3.2c1.1,0,2.1-0.2,2.8-0.4
	l51.5-18.7c0.2-0.1,4.2-1.3,5.8,2.4c-0.6,0.4-1.1,0.5-1.1,0.5l-7.8,2.9c-0.1,0-0.2,0.1-0.3,0.2c-1.1,0.3-2.4,0.9-3.9,1.6l-22.1,8
	c-0.6,0.1-5.7,1.5-11.1,4.9c-7.4,4.8-11.6,11.3-12,19c-0.3,5.8,1.1,10.2,4.2,13c4.8,4.3,11.8,3.2,12.1,3.2l0.1,0l0.1-0.1
	c0,0,0.2-0.1,0.2,0c0.1,0.1,0.3,0.5,0.3,1.4c0,2.1,0.2,4.9,1.9,5.5c0.2,0.1,0.4,0.1,0.6,0.1c1.3,0,3-1.4,5.2-4.2
	c2.9-3.8,3.9-6.2,3.1-7.6c-0.5-0.9-1.5-1-2-0.9l-0.1,0c-2.5,0.5-6.6,0.7-7.3-0.3c-0.3-0.5-1.9-2.8-1.1-5.5c0.6-2.2,2.7-4,6.1-5.5
	L44,62l0.1-0.1c0,0,2.5-2.3,8.8-2.6c7.9-0.3,14.1-4.6,17.3-12c2-4.7,3-9.4,3.4-12.5l3.3-1.2c0.3-0.1,2.3-0.7,3.3-2.6
	c0.7-1.3,0.7-2.8,0.2-4.5C80.8,26.1,81.1,25.7,81.3,25.2z M43.2,60.7c-1.5,0.6-2.8,1.4-3.8,2.2C36,61,35,55.7,34.9,55.6
	c-0.1-0.4-0.5-0.7-0.8-0.6c-0.4,0.1-0.7,0.4-0.6,0.8c0,0.2,1.1,5.6,4.7,8c-0.9,1-1.6,2-1.9,3.2c0,0.1,0,0.1,0,0.2
	c-3.6-0.3-6.6-3.4-6.7-3.4c-0.3-0.3-0.7-0.3-1,0c-0.3,0.3-0.3,0.7,0,1c0.1,0.1,3.4,3.5,7.5,3.9c-0.1,2.6,1.3,4.7,1.6,5.1
	c1.5,2.1,7.4,1.1,8.7,0.9c0.1,0,0.5,0,0.6,0.2c0.1,0.2,0.5,1.4-3,6c-2.9,3.8-4,3.7-4.2,3.6c-0.2-0.1-0.9-0.6-0.9-4.1
	c0-1.4-0.3-2.3-1-2.7c-0.3-0.2-0.6-0.2-0.8-0.2c-0.3,0-0.5,0.1-0.7,0.1c-0.8,0.1-6.8,0.8-10.8-2.8c-2.8-2.5-4-6.5-3.7-11.8
	c0.4-7.2,4.2-13.2,11.3-17.8c4.4-2.8,8.7-4.2,10.2-4.6c-1.5,9.4,1.4,14.7,4.1,18C44.9,59.4,43.5,60.4,43.2,60.7z M72.4,32.7
	c-0.3,2.8-1.1,8.4-3.5,14c-3,6.9-8.7,10.9-16,11.2c-1.4,0.1-2.6,0.2-3.7,0.4c-2.8-3.1-6-8.2-4.2-18.1l21.2-7.7l0.1,0
	c1.6-0.8,2.9-1.4,4-1.6c0.5-0.1,1.1,0,1.5,0.4C72.2,31.6,72.4,32.1,72.4,32.7z M78.9,30.2c-0.8,1.5-2.4,1.9-2.4,1.9l-2.7,1
	c0-0.1,0-0.2,0-0.3c0.1-1-0.3-2.1-1.1-2.7c-0.1-0.1-0.2-0.1-0.3-0.2l5.6-2.1c0.1,0,0.6-0.2,1.1-0.5C79.4,28.5,79.3,29.4,78.9,30.2z"
	/>
<path fill="#FFFFFF" d="M162.3,32.4c-3-2.7-5.9-3.1-8.1-0.9c-1.4,1.3-0.9,3.2-0.2,4.4l-4.1,2.9c0,0,0,0,0,0l-12.6,9
	c-0.2,0.1-0.4,0.3-0.6,0.4c-0.5-0.2-1.6-0.7-3.1-1.2c0.8-5.3,5.5-10.2,6.9-11.5c1.2,0.5,3.3,0.9,4.8-0.7c0.7-0.8,1.1-1.6,1-2.6
	c-0.1-1.6-1.3-3-2.3-3.9c-0.3-0.2-0.5-0.5-0.8-0.7c-1.2-1.3-2.6-2.7-5.8-1.4c-1,0.4-1.7,1.1-2.1,2c-0.5,1.3-0.1,2.8,0.2,3.6
	c-12.1,5.9-15.4,9.7-16,11.9c-0.1,0.2-0.1,0.4-0.1,0.5c-0.3,0-0.5,0-0.8,0c-9.7-0.1-17.5,3.4-23.3,10.3c-6.9,8.3-9.7,15-8.4,20
	c0.6,2.4,2.6,4.4,5.1,5.1c3.4,0.9,12.5,3.2,22.9,4.1c2.6,0.2,5.1,0.3,7.6,0.3c9.7,0,17.9-1.6,24.4-4.9c5.9-3,9.2-6.4,9.9-10.3
	c0.6-3.5-1-7.3-4.6-11c0,0-0.1-0.1-0.1-0.1c0,0-1.2-0.9-1.5-2.8c-0.4-2.5,0.7-5.8,3.2-9.4l4.9-4.9c1.2,0.4,3.1,0.6,4.7-0.9
	c0.8-0.8,1.3-1.9,1.3-3C164.5,35.2,163.7,33.7,162.3,32.4z M136.8,32.9c0.2-0.1,0.3-0.2,0.4-0.4c0.1-0.2,0-0.4,0-0.6
	c0,0-0.9-1.8-0.4-3.1c0.2-0.5,0.6-0.9,1.3-1.2c2.3-0.9,3-0.1,4.2,1.1c0.3,0.3,0.5,0.5,0.8,0.8c0.6,0.6,1.7,1.7,1.8,2.9
	c0,0.5-0.2,1-0.6,1.5c-1.3,1.4-3.4,0.2-3.5,0.2c-0.3-0.2-0.6-0.1-0.9,0.1c-0.1,0.1-1.8,1.6-3.6,4c0,0.1-0.1,0.1-0.1,0.2
	c-2.7-1.3-3.1-2.9-3.1-3.5C134.1,34.2,135.4,33.5,136.8,32.9z M120.9,44.1c0.3-1.1,2-3.9,10.7-8.6c0.3,1.1,1.1,2.7,3.6,4
	c-1.6,2.4-2.7,4.8-3,7.1c-2.9-0.9-6.9-1.9-11.4-2.2C120.8,44.3,120.9,44.2,120.9,44.1z M152.6,44.5c-2.9,4-4,7.6-3.5,10.6
	c0.4,2.3,1.7,3.4,2,3.7c2.3,2.3,4.8,5.9,4.2,9.7c-0.6,3.4-3.6,6.5-9.1,9.3c-7.9,4-18.3,5.5-31.2,4.5c-10.4-0.8-19.3-3.1-22.7-4
	c-2-0.6-3.5-2.1-4-4c-0.8-3.1,0-8.9,8.1-18.7c5.4-6.5,12.7-9.8,21.7-9.8c0.1,0,0.3,0,0.4,0c7.5,0.1,14.1,2.5,16.7,3.6
	c-6.7,4.9-10,9.7-9.7,14.2c0.2,2.5,1.4,4.9,3.7,7c1.7,1.5,3.3,2.3,3.3,2.4c0.1,0.1,0.2,0.1,0.3,0.1c0.3,0,0.5-0.1,0.7-0.4
	c0.2-0.4,0-0.8-0.3-1c-0.1,0-5.9-2.9-6.2-8.1c-0.3-4.2,3.1-8.8,10-13.6c0.1,0,0.1,0,0.2-0.1l12.2-8.7c0.1,0.6,0.4,1.3,1.1,1.9
	c0.8,0.7,1.7,1.1,2.4,1.3L152.6,44.5C152.6,44.5,152.6,44.5,152.6,44.5z M162.3,38.5c-1.5,1.5-3.4,0.5-3.5,0.4
	c-0.3-0.2-0.6-0.1-0.9,0.1l-3.9,4c-0.5-0.1-1.6-0.3-2.6-1.2c-0.9-0.8-0.6-1.6-0.5-1.9l4.5-3.2c0.2-0.1,0.3-0.3,0.3-0.5
	c0-0.2,0-0.4-0.1-0.5c0,0-1.5-2-0.4-3.1c1.7-1.6,3.7-1.3,6.1,0.9c1.1,1,1.7,2.1,1.7,3.2C163.1,37.3,162.8,38,162.3,38.5z"/>
<path fill="#FFFFFF" d="M260.7,76c-2.8-3.6-6.8-4.3-8.1-4.4c-0.9-1.7-3.3-6-6.7-10.8c2.1-1,7.3-3.9,8.3-6.7c0.1-0.4-0.1-0.8-0.4-0.9
	c-0.4-0.1-0.8,0.1-0.9,0.4c-0.8,2.2-5.5,4.8-7.8,6c0,0,0,0-0.1-0.1c-0.4-0.5-0.8-1.1-1.2-1.6c1.6-1.2,5.9-4.7,6.9-7.8
	c0.1-0.4-0.1-0.8-0.5-0.9c-0.4-0.1-0.8,0.1-0.9,0.5c-0.8,2.7-4.9,6-6.4,7.1c-0.6-0.8-1.2-1.5-1.8-2.2c1.6-1.4,6.1-5.5,6.8-9.1
	c0.1-0.4-0.2-0.8-0.6-0.9c-0.4-0.1-0.8,0.2-0.9,0.6c-0.7,3.1-4.8,7-6.3,8.3c-0.6-0.7-1.2-1.3-1.7-1.9c1.2-1.5,4.6-5.8,5-9.9
	c0-0.4-0.2-0.8-0.6-0.8c-0.4,0-0.8,0.2-0.8,0.6c-0.4,3.6-3.4,7.5-4.6,9c-1-1-1.9-1.9-2.9-2.7l0.8-22.7c0-0.4-0.3-0.7-0.7-0.8
	l-8.4-0.4c0-0.3,0-0.5,0.1-0.8c0.2-4.1-0.8-7.1-3.1-9.1c-3.9-3.4-9.9-2.2-10.1-2.2c-0.1,0-2.9,0.5-5.8,1.7c-4,1.7-6.1,3.7-6.1,6.2
	c0,1,0.4,2,1.2,2.7c3,2.8,10.7,2.4,11.4,2.4l0.7,0c0.2,2,1.8,4,3.5,5.1c1.7,1.1,3.5,1.4,4.9,0.7c1.6-0.8,2.6-2.6,3-5.3l7.8,0.4
	l-0.8,20.9c-2.3-1.8-4.6-3.2-6.8-4.1c0-1-0.3-2-0.7-2.9c-2.6-4.9-11.2-5.7-16.1-5.7c-1.7,0-3.1,1.3-3.2,2.9
	c-0.3,3.5-0.1,10.2,3.9,15.2c1.5,1.9,3.3,2.9,5.3,2.9c0,0,0,0,0,0c0.3,0,0.6,0,0.9-0.1c0.2,1,0.9,2.9,2.6,5.3l-20.6,0.5l-0.3-7.8
	c2.8-0.4,4.6-1.4,5.4-3c0.7-1.4,0.5-3.2-0.6-4.9c-1.1-1.7-3.1-3.3-5.1-3.5l0-0.7c0-0.7,0.5-8.5-2.3-11.5c-0.7-0.8-1.7-1.2-2.7-1.2
	c-2.4,0-4.5,2-6.2,6c-1.2,2.8-1.8,5.6-1.8,5.7c-0.1,0.3-1.2,6.2,2.1,10.1c1.9,2.3,5,3.3,9,3.2c0.3,0,0.6,0,0.8-0.1l0.3,8.4
	c0,0.4,0.3,0.7,0.7,0.7c0,0,0,0,0,0l22.3-0.6c0.7,0.9,1.5,1.8,2.5,2.8c-1,0.8-5.7,4.3-9.6,4.5c-0.4,0-0.7,0.4-0.7,0.8
	c0,0.4,0.3,0.7,0.7,0.7c0,0,0,0,0,0c4.7-0.3,9.9-4.3,10.6-4.9c0.6,0.5,1.2,1.1,1.9,1.7c-0.3,0.3-5.3,5.8-9.1,6.5
	c-0.4,0.1-0.7,0.4-0.6,0.8c0.1,0.4,0.4,0.6,0.7,0.6c0,0,0.1,0,0.1,0c4.4-0.7,9.7-6.7,9.9-7c0,0,0,0,0,0c0.7,0.6,1.4,1.1,2.2,1.7
	c-0.1,0-0.1,0.1-0.2,0.2c0,0.1-4.4,5.7-7.8,6.6c-0.4,0.1-0.6,0.5-0.5,0.9c0.1,0.3,0.4,0.5,0.7,0.5c0.1,0,0.1,0,0.2,0
	c3.8-1,8.4-6.9,8.6-7.1c0.1-0.1,0.1-0.2,0.1-0.3c0.6,0.4,1.2,0.8,1.8,1.2c-0.2,0-0.4,0.2-0.5,0.4c-1,2-4.2,7.3-6.6,8.1
	c-0.4,0.1-0.6,0.5-0.5,0.9c0.1,0.3,0.4,0.5,0.7,0.5c0.1,0,0.1,0,0.2,0c3.4-1,7.1-8,7.5-8.8c0.1-0.2,0.1-0.3,0.1-0.5
	c3.5,2.3,7.6,4.6,12.7,7.1c0.1,1.7,0.5,5,3.1,7.5c0.8,0.8,1.8,1.2,2.9,1.2c0,0,0.1,0,0.1,0c3-0.1,6.1-3.2,6.4-3.5
	C258.3,84.4,263.5,79.6,260.7,76z M222.5,29.5c-1.3,0.6-2.7-0.1-3.4-0.6c-1.4-1-2.6-2.6-2.8-3.9l8.4,0.4
	C224.4,27.5,223.6,29,222.5,29.5z M225,23.1c0,0.3,0,0.6-0.1,0.8l-10.8-0.5c0,0,0,0,0,0c0,0,0,0,0,0c-2.2,0.1-8.3,0-10.4-2
	c-0.5-0.5-0.7-1-0.7-1.7c0-3.7,7.7-5.9,10.6-6.5c0.1,0,5.6-1,8.9,1.9C224.4,16.9,225.2,19.5,225,23.1z M196,51.9
	c-3.6,0.2-6.2-0.7-7.9-2.6c-2.9-3.4-1.8-8.9-1.8-8.9c0.6-2.9,2.9-10.6,6.5-10.6c0,0,0,0,0,0c0.6,0,1.2,0.3,1.6,0.8
	c2,2.2,2.1,8.3,1.9,10.4c0,0,0,0,0,0.1l0.4,10.8C196.5,51.8,196.2,51.9,196,51.9z M198,43.2c1.3,0.3,2.9,1.4,3.9,2.9
	c0.5,0.7,1.2,2.2,0.6,3.4c-0.5,1.1-2,1.8-4.1,2.2L198,43.2z M245.9,78.4c-1.9-0.9-3.6-1.8-5.2-2.7c0.6-1.6,2.9-6.2,7.9-8.2
	c1.5,2.4,2.5,4.3,2.9,5.1L245.9,78.4z M226.3,66c0.3-0.7,0.9-2.3,2.3-4.2c1.7-2.3,4.7-5.6,9.9-8.1c1.6,1.8,3.1,3.6,4.5,5.5
	c-2.9,1.1-5.7,3.3-8.4,6.5c-1.5,1.8-2.6,3.5-3.1,4.3C229.5,68.7,227.8,67.3,226.3,66z M243.9,60.4c1.5,2.1,2.8,4.1,3.9,5.9
	c-5.3,2.2-7.7,6.8-8.5,8.7c-2.5-1.4-4.7-2.8-6.7-4.1C233.9,68.9,238.2,62.5,243.9,60.4z M215.6,53.7
	C215.6,53.7,215.6,53.7,215.6,53.7c-1.5,0-2.9-0.8-4.1-2.3c-3.7-4.6-3.9-10.9-3.6-14.2c0.1-0.9,0.8-1.6,1.7-1.6c0,0,0,0,0,0
	c3.7,0,12.5,0.6,14.8,5c1.2,2.2,0.5,5.2-2,8.9c0,0-0.1,0.1-0.1,0.1C222.1,49.9,219,53.7,215.6,53.7z M221,60.4L221,60.4L221,60.4
	c-2.1-2.8-2.8-4.8-3-5.7c2.9-1,5.1-3.7,5.6-4.3c0.1-0.1,0.1-0.2,0.2-0.2c0,0,0,0,0,0c1.5-2.2,2.3-4.2,2.6-6
	c3.9,1.7,7.7,4.8,11.1,8.4c-8.2,4.1-11.4,10-12.3,12.4C223.3,63.3,222,61.7,221,60.4z M259.1,81.1c-1,1.5-2.2,2.6-2.2,2.6
	c0,0,0,0-0.1,0c0,0-2.9,3-5.4,3.1c-0.7,0-1.4-0.2-1.9-0.8c-2.2-2.1-2.6-5.2-2.6-6.6l6.2-6.3c0,0,0.1-0.1,0.1-0.1
	c1.5,0.3,4.5,1.1,6.6,3.8C260.4,77.9,260.2,79.4,259.1,81.1z"/>
</svg>
