<?xml version="1.0" encoding="utf-8"?>
<!-- Generator: Adobe Illustrator 21.1.0, SVG Export Plug-In . SVG Version: 6.00 Build 0)  -->
<!DOCTYPE svg PUBLIC "-//W3C//DTD SVG 1.1//EN" "http://www.w3.org/Graphics/SVG/1.1/DTD/svg11.dtd">
<svg version="1.1" id="Layer_1" xmlns="http://www.w3.org/2000/svg" xmlns:xlink="http://www.w3.org/1999/xlink" x="0px" y="0px"
	 viewBox="0 0 125 100" enable-background="new 0 0 125 100" xml:space="preserve">
<path fill="#FFFFFF" d="M94.3,48.2c-1.9,0-3.4,1.5-3.4,3.4v1.8h-4.1c-2.3,0-4.2,1.9-4.2,4.2v1.6H73c-1.7-3-4.6-5.2-8-6v-9.3
	c0.9-1,1.8-2.5,2.2-4.8l0-0.2c1.8-10.4,3.7-24.8-0.9-30.4c-1.2-1.5-2.9-2.3-4.8-2.3l0,0l0,0c-1.9,0-3.6,0.8-4.8,2.3
	c-5,6-2.3,22.6-1.1,29.7c0.1,0.4,0.1,0.7,0.2,1c0.4,2.2,1.1,3.6,2,4.6v9.9c-2.8,1-5.2,2.9-6.7,5.5h-7.2c-0.1,0-1.9,0-4,1.1
	c-1.9,1-4.6,3.2-6,7.9l-6.5,22.3l9.3,3.6L44.1,76l0,0c0,0,1.1-2.9,2.8-2.9c1.7-0.1,3.5,0,4.5,0c2.3,3.3,6.2,5.4,10.5,5.4
	c4.7,0,8.9-2.6,11.1-6.4h9.5v1.4c0,2.3,1.9,4.2,4.2,4.2h4.1v2.1c0,1.9,1.5,3.4,3.4,3.4s3.4-1.5,3.4-3.4V51.6
	C97.7,49.7,96.1,48.2,94.3,48.2z M57,37.8c-1-6.3-3.8-23,0.8-28.5c1-1.2,2.2-1.7,3.7-1.8c1.5,0,2.7,0.6,3.7,1.8
	c4.8,5.8,1.7,23.5,0.6,29.3l0,0.2c-0.9,5.2-4.2,5.3-4.3,5.3c0,0,0,0,0,0c-0.1,0-3.4-0.1-4.3-5.3C57.1,38.5,57.1,38.2,57,37.8z
	 M59.2,44.9c1.2,0.7,2.3,0.7,2.3,0.7c0,0,0,0,0,0c0.2,0,1.1,0,2.1-0.6v7.9c-0.5-0.1-1.1-0.1-1.7-0.1c-1,0-1.9,0.1-2.8,0.3V44.9z
	 M46.9,71.6c-2.7,0.1-4,3.5-4.2,3.9l-7,16.6l-6.7-2.6l6.1-21c2.5-7.8,8.4-8,8.6-8h6.4c-0.7,1.6-1.1,3.4-1.1,5.2
	c0,2.1,0.5,4.2,1.5,5.9C49.5,71.6,48.2,71.6,46.9,71.6z M61.9,77c-4.1,0-7.6-2.1-9.6-5.3l0-0.1c0,0,0,0-0.1,0
	c-1.1-1.7-1.7-3.8-1.7-6c0-6.3,5.1-11.4,11.4-11.4s11.4,5.1,11.4,11.4S68.2,77,61.9,77z M73.8,70.6c0.7-1.5,1-3.2,1-5
	c0-1.8-0.4-3.4-1-5h8.8v10H73.8z M86.7,76.2c-1.5,0-2.8-1.2-2.8-2.8V57.6c0-1.5,1.2-2.8,2.8-2.8h4.1v21.4H86.7z M96.2,79.8
	c0,1.1-0.9,2-2,2s-2-0.9-2-2V51.6c0-1.1,0.9-2,2-2s2,0.9,2,2V79.8z"/>
</svg>
