<?xml version="1.0" encoding="utf-8"?>
<!-- Generator: Adobe Illustrator 21.1.0, SVG Export Plug-In . SVG Version: 6.00 Build 0)  -->
<!DOCTYPE svg PUBLIC "-//W3C//DTD SVG 1.1//EN" "http://www.w3.org/Graphics/SVG/1.1/DTD/svg11.dtd">
<svg version="1.1" id="Layer_1" xmlns="http://www.w3.org/2000/svg" xmlns:xlink="http://www.w3.org/1999/xlink" x="0px" y="0px"
	 viewBox="0 0 50 45.6" enable-background="new 0 0 50 45.6" xml:space="preserve">
<g>
	<path fill="#C9C8CB" d="M44.5,45.6h-39c-3,0-5.5-2.5-5.5-5.5V7c0-3,2.5-5.5,5.5-5.5h39c3,0,5.5,2.5,5.5,5.5v33.1
		C50,43.1,47.5,45.6,44.5,45.6z"/>
	<path fill="#F0EFF5" d="M44.5,44.1h-39c-3,0-5.5-2.5-5.5-5.5V5.5C0,2.5,2.5,0,5.5,0h39c3,0,5.5,2.5,5.5,5.5v33.1
		C50,41.6,47.5,44.1,44.5,44.1z"/>
	<path fill="#FED956" d="M25,11H0V3c0-1.6,1.3-3,3-3h22"/>
	<path fill="#F7CD4B" d="M25,0h22c1.6,0,3,1.3,3,3V11H25"/>
	<rect x="14.6" y="1.8" fill="none" width="20.1" height="8.1"/>
	<text transform="matrix(1 0 0 1 14.5762 7.8989)" fill="#001E33" font-family="'Sanchez-Regular'" font-size="7.1373px">SEPT</text>
	<rect x="11.8" y="15.3" fill="none" width="26.3" height="26.1"/>
	<text transform="matrix(1 0 0 1 11.8281 35.1098)" fill="#001E33" font-family="'Roboto-Medium'" font-size="23.1592px">15</text>
</g>
</svg>
