<?xml version="1.0" encoding="utf-8"?>
<!-- Generator: Adobe Illustrator 21.0.2, SVG Export Plug-In . SVG Version: 6.00 Build 0)  -->
<!DOCTYPE svg PUBLIC "-//W3C//DTD SVG 1.1//EN" "http://www.w3.org/Graphics/SVG/1.1/DTD/svg11.dtd">
<svg version="1.1" id="Layer_1" xmlns="http://www.w3.org/2000/svg" xmlns:xlink="http://www.w3.org/1999/xlink" x="0px" y="0px"
	 viewBox="0 0 51 38.2" style="enable-background:new 0 0 51 38.2;" xml:space="preserve">
<style type="text/css">
	.st0{fill:#8EC73E;}
</style>
<g>
	<g>
		<path class="st0" d="M9.3,27.2h2.5V11.2H9.3V9.8H16v1.4h-2.5v7h11.2v-7h-2.5V9.8h6.7v1.4h-2.5v15.9h2.5v1.4h-6.7v-1.4h2.5v-7.5
			H13.5v7.5H16v1.4H9.3V27.2z"/>
	</g>
	<g>
		<path class="st0" d="M28.3,18.2h9.2v-7H35V9.8h6.7v1.4h-2.5v15.9h2.5v1.4H35v-1.4h2.5v-7.5h-9.2"/>
	</g>
</g>
<path class="st0" d="M51,38.2H0V0h51V38.2z M1.6,36.6h47.8V1.6H1.6V36.6z"/>
</svg>
